<svg xmlns="http://www.w3.org/2000/svg" xmlns:xlink="http://www.w3.org/1999/xlink" width="139" zoomAndPan="magnify" viewBox="0 0 104.25 30.000001" height="40" preserveAspectRatio="xMidYMid meet" version="1.0"><defs><g/><clipPath id="9152e0910b"><path d="M 1.320312 3 L 15 3 L 15 24 L 1.320312 24 Z M 1.320312 3 " clip-rule="nonzero"/></clipPath></defs><g clip-path="url(#9152e0910b)"><g fill="#000000" fill-opacity="1"><g transform="translate(1.318547, 21.648092)"><g><path d="M 11.394531 -3.167969 C 10.867188 -3.214844 10.289062 -3.238281 9.738281 -3.214844 C 8.082031 -3.117188 6.429688 -2.710938 4.84375 -2.230469 C 6.046875 -5.277344 6.644531 -8.515625 7.675781 -11.632812 C 8.179688 -13.144531 8.730469 -14.824219 9.714844 -16.097656 C 9.929688 -16.382812 10.457031 -17.03125 10.914062 -16.910156 C 11.296875 -16.792969 11.105469 -15.808594 11.035156 -15.542969 C 11.128906 -15.878906 11.539062 -17.246094 10.554688 -16.886719 C 9.5 -16.503906 8.875 -14.96875 8.46875 -14.03125 C 8.828125 -14.898438 9.234375 -15.855469 9.90625 -16.527344 C 10.195312 -16.792969 10.890625 -17.320312 11.203125 -16.863281 C 11.488281 -16.433594 11.128906 -15.449219 11.011719 -15.039062 C 10.769531 -14.25 10.457031 -13.457031 10.097656 -12.714844 C 10.097656 -12.761719 10.410156 -13.527344 10.386719 -13.527344 C 10.289062 -13.554688 9.453125 -11.800781 9.453125 -11.777344 L 9.476562 -11.777344 C 9.453125 -11.730469 9.402344 -11.707031 9.402344 -11.707031 C 9.210938 -11.347656 9.59375 -11.179688 9.90625 -11.15625 C 10.386719 -11.105469 10.914062 -11.347656 11.296875 -11.632812 C 12.304688 -12.402344 13.167969 -14.199219 13.097656 -15.472656 C 13.027344 -16.503906 12.640625 -17.246094 11.632812 -17.800781 C 11.082031 -18.109375 10.386719 -18.351562 9.714844 -18.304688 C 8.753906 -18.253906 8.011719 -17.632812 7.484375 -16.863281 C 7.078125 -16.238281 6.8125 -15.566406 6.574219 -14.898438 L 6.238281 -13.890625 C 6.140625 -13.625 5.878906 -13.191406 5.925781 -12.929688 C 5.925781 -12.882812 6.09375 -13.242188 6.117188 -13.265625 C 5.972656 -12.808594 5.851562 -12.328125 5.710938 -11.851562 C 5.683594 -11.875 5.78125 -12.210938 5.757812 -12.210938 C 5.636719 -12.210938 5.230469 -10.675781 5.179688 -10.554688 C 4.941406 -9.691406 4.675781 -8.804688 4.582031 -7.890625 C 4.484375 -7.050781 4.367188 -6.285156 4.148438 -5.46875 C 4.054688 -5.011719 3.910156 -4.582031 3.789062 -4.125 C 3.71875 -3.8125 3.335938 -2.949219 3.453125 -2.636719 C 3.476562 -2.613281 3.503906 -2.613281 3.527344 -2.636719 C 3.453125 -2.421875 3.429688 -2.230469 3.359375 -2.039062 C 3.359375 -2.039062 3.476562 -2.542969 3.453125 -2.542969 C 3.335938 -2.472656 3.308594 -1.894531 3.308594 -1.917969 C 3.167969 -1.535156 2.710938 -1.535156 2.351562 -1.367188 C 2.039062 -1.246094 1.773438 -1.054688 1.535156 -0.816406 C 1.03125 -0.3125 0.382812 0.574219 0.625 1.367188 C 0.792969 1.941406 1.4375 2.085938 1.96875 2.015625 C 2.207031 1.96875 2.949219 1.726562 2.902344 1.414062 C 2.878906 1.367188 2.519531 1.605469 2.398438 1.65625 C 2.566406 1.535156 2.757812 1.367188 2.902344 1.222656 C 2.878906 1.296875 3.359375 0.769531 3.40625 0.695312 C 3.671875 0.335938 3.980469 0.191406 4.367188 0 C 5.011719 -0.359375 5.683594 -0.695312 6.378906 -0.933594 C 7.867188 -1.464844 9.5 -1.511719 10.914062 -2.230469 C 11.273438 -2.398438 12.234375 -3.070312 11.394531 -3.167969 Z M 6.332031 -13.601562 C 6.667969 -14.585938 7.101562 -15.496094 7.722656 -16.335938 C 8.226562 -17.03125 8.804688 -17.464844 9.570312 -17.632812 C 7.652344 -17.152344 6.980469 -14.511719 6.238281 -12.882812 C 5.996094 -12.304688 5.78125 -11.730469 5.589844 -11.105469 C 5.804688 -11.945312 6.070312 -12.761719 6.332031 -13.601562 Z M 7.605469 -11.730469 L 7.605469 -11.753906 L 7.605469 -11.707031 L 7.050781 -10.050781 C 7.21875 -10.625 7.414062 -11.179688 7.605469 -11.753906 Z M 2.375 1.679688 C 2.375 1.679688 2.375 1.65625 2.398438 1.65625 Z M 2.375 1.679688 "/></g></g></g></g><g fill="#000000" fill-opacity="1"><g transform="translate(13.287409, 21.648092)"><g><path d="M 12.210938 -5.78125 C 12.1875 -6.308594 11.753906 -5.851562 11.609375 -5.660156 C 11.296875 -5.207031 11.011719 -4.726562 10.722656 -4.269531 C 10.074219 -3.285156 9.425781 -2.304688 8.683594 -1.367188 C 6.210938 1.679688 7.941406 -3.742188 7.75 -3.695312 C 7.652344 -3.671875 7.582031 -3.308594 7.554688 -3.238281 C 7.75 -4.101562 8.109375 -5.132812 8.5625 -5.972656 C 8.828125 -6.5 9.140625 -6.933594 8.660156 -7.507812 C 7.773438 -8.585938 6.742188 -7.605469 6.164062 -6.859375 C 5.925781 -7.773438 5.445312 -9.117188 4.269531 -9.117188 C 3.742188 -9.117188 3.429688 -8.851562 3.070312 -8.539062 C 2.855469 -8.394531 2.6875 -8.371094 2.496094 -8.203125 C 2.183594 -7.988281 1.96875 -7.652344 1.75 -7.363281 C 0.933594 -6.164062 0.359375 -4.652344 0.0976562 -3.261719 C -0.0234375 -2.589844 -0.0703125 -1.847656 0.121094 -1.175781 C 0.238281 -0.792969 0.671875 0.0703125 1.222656 0 C 1.246094 0 1.199219 -0.0234375 1.128906 -0.0703125 C 1.464844 0.0234375 1.847656 -0.0234375 2.136719 -0.214844 C 2.160156 -0.167969 1.871094 -0.046875 1.871094 -0.046875 C 2.136719 0.359375 4.101562 -2.015625 4.246094 -2.230469 C 4.558594 -2.664062 4.773438 -3.117188 5.0625 -3.574219 C 5.277344 -3.910156 5.613281 -4.34375 5.851562 -4.703125 C 5.828125 -4.535156 5.828125 -4.316406 5.828125 -4.316406 C 5.398438 -2.949219 4.988281 -1.464844 5.566406 -0.046875 C 5.828125 0.671875 6.476562 1.34375 7.292969 1.199219 C 8.011719 1.078125 8.613281 0.382812 9.042969 -0.167969 C 9.570312 -0.792969 10.027344 -1.488281 10.484375 -2.207031 C 10.867188 -2.855469 11.226562 -3.503906 11.539062 -4.222656 C 11.730469 -4.675781 12.257812 -5.230469 12.210938 -5.78125 Z M 5.324219 -5.613281 C 5.207031 -5.445312 5.085938 -5.277344 4.988281 -5.109375 L 4.367188 -4.222656 C 3.957031 -3.621094 3.527344 -3.046875 3.070312 -2.496094 C 2.949219 -2.328125 2.375 -1.582031 2.136719 -1.65625 C 1.773438 -1.773438 2.160156 -3.023438 2.207031 -3.214844 C 2.277344 -3.550781 3.550781 -7.246094 3.886719 -7.316406 C 3.453125 -7.339844 2.0625 -3 1.992188 -2.636719 C 2.183594 -3.8125 2.613281 -4.964844 3.09375 -6.046875 C 3.359375 -6.597656 3.957031 -8.058594 4.75 -8.058594 C 5.179688 -8.058594 5.277344 -7.171875 5.347656 -6.882812 C 5.324219 -6.933594 5.109375 -7.628906 5.085938 -7.605469 C 4.964844 -7.507812 5.445312 -6.1875 5.445312 -5.996094 C 5.445312 -5.804688 5.445312 -5.804688 5.324219 -5.613281 Z M 5.878906 -4.4375 C 5.878906 -4.4375 5.949219 -4.773438 5.972656 -4.84375 L 6.09375 -5.011719 Z M 5.515625 -5.925781 L 5.515625 -6.164062 C 5.589844 -6.070312 5.589844 -5.996094 5.515625 -5.925781 Z M 5.515625 -5.925781 "/></g></g></g><g fill="#000000" fill-opacity="1"><g transform="translate(23.745175, 21.648092)"><g/></g></g><g fill="#000000" fill-opacity="1"><g transform="translate(30.461166, 21.648092)"><g><path d="M 2.253906 -1.917969 L 2.230469 -1.894531 C 2.253906 -1.917969 2.253906 -1.917969 2.253906 -1.941406 L 2.253906 -2.0625 C 2.519531 -3.476562 3.023438 -4.871094 3.527344 -6.238281 C 4.054688 -7.675781 4.558594 -9.089844 5.230469 -10.457031 C 5.851562 -11.753906 6.574219 -13.027344 7.386719 -14.199219 C 8.109375 -15.28125 8.972656 -16.457031 10.074219 -17.175781 C 10.410156 -17.269531 10.746094 -17.632812 11.179688 -17.558594 C 11.609375 -17.488281 11.609375 -17.03125 11.515625 -16.601562 C 11.632812 -16.933594 11.707031 -17.296875 11.417969 -17.535156 C 11.035156 -17.824219 10.289062 -17.367188 9.980469 -17.152344 C 9.835938 -17.101562 9.691406 -17.007812 9.570312 -16.910156 C 9.644531 -16.984375 9.738281 -17.054688 9.859375 -17.128906 L 9.738281 -17.078125 L 10.074219 -17.269531 C 10.457031 -17.488281 11.324219 -17.96875 11.609375 -17.34375 C 11.824219 -16.839844 11.488281 -16 11.324219 -15.519531 C 11.011719 -14.703125 10.625 -13.9375 10.21875 -13.167969 C 10.289062 -13.335938 10.578125 -13.984375 10.578125 -13.984375 C 10.410156 -14.007812 9.644531 -12.234375 9.5 -12.1875 L 9.523438 -12.1875 C 9.425781 -12.113281 9.355469 -12.042969 9.355469 -12.019531 C 9.308594 -11.730469 9.644531 -11.800781 9.835938 -11.824219 C 10.652344 -11.921875 11.707031 -12.617188 12.234375 -13.21875 C 12.808594 -13.863281 13.027344 -14.847656 13.027344 -15.710938 L 13.027344 -15.734375 C 13 -17.367188 11.875 -19.429688 9.929688 -19.308594 C 8.851562 -19.261719 7.84375 -18.207031 7.148438 -17.488281 C 6.644531 -16.910156 6.164062 -16.289062 5.734375 -15.664062 C 5.542969 -15.375 5.347656 -15.113281 5.179688 -14.824219 C 4.988281 -14.5625 4.605469 -14.152344 4.507812 -13.839844 C 4.507812 -13.839844 4.628906 -13.984375 4.726562 -14.082031 C 4.460938 -13.671875 4.222656 -13.242188 3.980469 -12.832031 C 3.957031 -12.859375 4.125 -13.191406 4.125 -13.191406 C 3.910156 -13.242188 2.925781 -11.273438 2.804688 -11.058594 C 2.375 -10.265625 1.992188 -9.476562 1.726562 -8.636719 C 1.4375 -7.699219 1.054688 -6.8125 0.769531 -5.902344 C 0.625 -5.445312 0.480469 -5.011719 0.382812 -4.558594 C 0.335938 -4.34375 0.289062 -4.148438 0.265625 -3.933594 C 0.265625 -3.910156 0.214844 -3.527344 0.265625 -3.574219 C 0.214844 -3.40625 0.214844 -3.191406 0.191406 -3.023438 C 0.191406 -3.023438 0.191406 -3.429688 0.214844 -3.476562 C 0.121094 -3.359375 0.191406 -2.902344 0.167969 -2.855469 C 0.046875 -1.941406 -0.144531 -0.984375 0.167969 -0.0976562 C 0.574219 1.128906 1.582031 2.136719 2.6875 2.78125 C 3.261719 3.140625 4.03125 3.550781 4.75 3.503906 C 5.589844 3.453125 6.40625 2.757812 7.027344 2.253906 C 8.851562 0.71875 10.507812 -1.4375 10.820312 -3.886719 C 10.84375 -4.054688 10.960938 -4.894531 10.675781 -4.917969 C 10.410156 -4.941406 10.21875 -4.367188 10.121094 -4.222656 C 9.402344 -3.046875 8.5625 -1.941406 7.628906 -0.933594 C 6.667969 0.121094 5.46875 1.246094 4.007812 1.582031 C 3.8125 1.632812 3.597656 1.65625 3.382812 1.65625 C 3.09375 1.632812 2.832031 1.558594 2.613281 1.34375 C 2.496094 1.222656 2.375 0.816406 2.230469 0.742188 C 2.230469 0.625 2.207031 0.503906 2.183594 0.433594 L 2.109375 0.289062 C 2.085938 -0.433594 2.109375 -1.101562 2.230469 -1.847656 L 2.230469 -1.871094 C 2.230469 -1.894531 2.253906 -1.894531 2.253906 -1.917969 Z M 6.476562 -13.648438 C 5.542969 -12.113281 4.75 -10.53125 3.957031 -8.898438 C 3.503906 -7.941406 3.046875 -6.957031 2.6875 -5.925781 C 3.191406 -7.53125 3.789062 -9.066406 4.507812 -10.601562 C 5.375 -12.449219 6.523438 -14.25 7.890625 -15.734375 C 7.339844 -15.0625 6.859375 -14.296875 6.476562 -13.648438 Z M 8.949219 -16.289062 C 8.613281 -15.953125 8.300781 -15.566406 8.011719 -15.207031 C 8.46875 -15.808594 8.949219 -16.40625 9.546875 -16.886719 C 9.332031 -16.695312 9.117188 -16.457031 8.949219 -16.289062 Z M 11.394531 -16.097656 C 11.441406 -16.238281 11.488281 -16.40625 11.515625 -16.601562 C 11.464844 -16.382812 11.371094 -16.167969 11.371094 -16 C 11.394531 -16.046875 11.394531 -16.070312 11.394531 -16.097656 Z M 11.394531 -16.097656 "/></g></g></g><g fill="#000000" fill-opacity="1"><g transform="translate(42.430028, 21.648092)"><g><path d="M 9.835938 -5.828125 C 9.691406 -6.453125 9.117188 -5.613281 8.996094 -5.46875 L 7.675781 -3.695312 L 6.378906 -1.992188 L 5.683594 -1.101562 C 5.613281 -1.007812 5.085938 -0.335938 5.132812 -0.335938 C 5.179688 -0.382812 5.253906 -0.382812 5.324219 -0.457031 C 4.964844 -0.0703125 3.644531 1.128906 3.40625 0.839844 C 3.214844 0.601562 3.742188 -0.40625 3.8125 -0.648438 C 4.078125 -1.34375 4.316406 -2.0625 4.605469 -2.734375 C 4.917969 -3.429688 5.277344 -4.125 5.566406 -4.820312 C 5.851562 -5.566406 5.421875 -5.828125 4.726562 -5.996094 C 4.414062 -6.070312 4.03125 -6.070312 3.671875 -6.117188 C 3.671875 -6.09375 3.695312 -6.09375 3.695312 -6.09375 C 4.007812 -6.046875 4.460938 -6.019531 4.84375 -5.902344 C 4.269531 -6.070312 3.550781 -5.996094 3.09375 -6.117188 C 2.78125 -6.1875 2.589844 -6.1875 2.636719 -6.546875 C 2.6875 -7.027344 3.191406 -7.53125 3.359375 -7.988281 C 3.359375 -7.964844 3.191406 -7.53125 3.214844 -7.53125 C 3.335938 -7.484375 3.527344 -8.15625 3.527344 -8.25 C 3.503906 -8.371094 3.214844 -8.730469 3.191406 -8.585938 L 3.238281 -8.515625 C 2.085938 -9.308594 0.71875 -7.675781 0.960938 -6.5 C 1.007812 -6.332031 1.101562 -6.238281 1.175781 -6.046875 C 1.222656 -5.902344 1.175781 -5.734375 1.320312 -5.542969 C 1.824219 -4.917969 2.734375 -4.894531 3.453125 -5.039062 C 3.335938 -4.871094 2.0625 -2.183594 2.136719 -2.160156 L 1.96875 -1.558594 C 1.941406 -1.582031 2.039062 -1.773438 1.992188 -1.773438 C 1.824219 -1.800781 1.488281 -0.40625 1.464844 -0.289062 C 1.367188 0.289062 1.390625 0.792969 1.632812 1.320312 C 1.773438 1.65625 1.941406 1.941406 2.253906 2.136719 C 2.542969 2.328125 2.902344 2.421875 3.238281 2.351562 C 3.359375 2.304688 3.8125 1.992188 3.695312 2.015625 L 3.863281 1.941406 C 3.839844 1.96875 3.8125 1.992188 3.8125 2.015625 C 3.886719 2.039062 4.988281 1.152344 5.132812 1.054688 C 5.902344 0.40625 6.523438 -0.382812 7.101562 -1.175781 C 7.675781 -1.992188 8.277344 -2.804688 8.828125 -3.621094 C 9.089844 -4.007812 9.332031 -4.390625 9.523438 -4.796875 C 9.667969 -5.085938 9.90625 -5.492188 9.835938 -5.828125 Z M 2.664062 -2.949219 C 2.832031 -3.382812 3.023438 -3.789062 3.238281 -4.199219 C 3.285156 -4.269531 3.621094 -5.132812 3.789062 -5.179688 C 3.671875 -5.109375 3.167969 -3.933594 3.046875 -3.71875 L 2.589844 -2.664062 C 2.351562 -2.085938 2.085938 -1.488281 1.917969 -0.863281 C 2.085938 -1.582031 2.375 -2.277344 2.664062 -2.949219 Z M 2.085938 1.65625 C 2.230469 1.847656 2.421875 2.039062 2.6875 2.136719 C 2.472656 2.0625 2.277344 1.941406 2.136719 1.800781 C 2.160156 1.800781 2.160156 1.824219 2.160156 1.847656 C 2.015625 1.65625 1.824219 1.246094 1.800781 1.175781 C 1.726562 0.886719 1.703125 0.550781 1.726562 0.265625 C 1.726562 0.0234375 1.75 -0.167969 1.800781 -0.382812 L 1.800781 -0.359375 C 1.75 -0.046875 1.726562 0.265625 1.75 0.601562 L 1.75 0.71875 C 1.726562 0.695312 1.726562 0.671875 1.726562 0.671875 C 1.726562 0.671875 1.726562 0.695312 1.75 0.742188 L 1.75 0.769531 L 1.847656 1.269531 L 1.773438 0.960938 C 1.824219 1.101562 1.941406 1.367188 2.0625 1.632812 L 2.039062 1.605469 C 2.039062 1.632812 2.0625 1.65625 2.085938 1.679688 Z M 2.757812 -6.261719 C 2.878906 -6.164062 3.09375 -6.140625 3.308594 -6.117188 C 3.117188 -6.140625 2.949219 -6.1875 2.832031 -6.285156 C 2.832031 -6.285156 2.6875 -6.40625 2.664062 -6.453125 C 2.664062 -6.40625 2.710938 -6.285156 2.757812 -6.261719 Z M 5.277344 -4.390625 L 4.773438 -3.335938 L 5.277344 -4.414062 Z M 1.824219 -0.457031 C 1.824219 -0.433594 1.800781 -0.40625 1.800781 -0.382812 L 1.800781 -0.40625 C 1.800781 -0.433594 1.824219 -0.433594 1.824219 -0.457031 Z M 5.300781 -4.460938 L 5.300781 -4.4375 L 5.277344 -4.4375 Z M 5.300781 -4.460938 L 5.300781 -4.4375 L 5.277344 -4.4375 Z M 1.847656 -0.769531 C 1.847656 -0.792969 1.871094 -0.816406 1.871094 -0.863281 C 1.871094 -0.816406 1.847656 -0.792969 1.847656 -0.769531 Z M 1.941406 1.4375 C 1.941406 1.4375 1.96875 1.464844 1.96875 1.488281 C 1.96875 1.464844 1.941406 1.464844 1.941406 1.4375 Z M 2.6875 -6.5 C 2.664062 -6.5 2.664062 -6.476562 2.664062 -6.476562 Z M 2.6875 -6.5 "/></g></g></g><g fill="#000000" fill-opacity="1"><g transform="translate(50.513208, 21.648092)"><g><path d="M 9.1875 -5.925781 C 9.1875 -5.902344 9.1875 -5.902344 9.164062 -5.925781 L 9.164062 -5.949219 C 8.78125 -6.597656 8.277344 -5.710938 8.058594 -5.398438 C 7.652344 -4.84375 7.269531 -4.316406 6.835938 -3.8125 C 6.476562 -3.382812 6.09375 -2.949219 5.804688 -2.496094 C 5.804688 -2.445312 5.757812 -2.328125 5.757812 -2.328125 C 5.660156 -2.183594 5.515625 -2.0625 5.398438 -1.917969 C 5.179688 -1.703125 4.964844 -1.464844 4.726562 -1.246094 C 4.367188 -0.910156 2.351562 0.984375 2.085938 -0.238281 C 1.941406 -0.839844 2.136719 -1.582031 2.253906 -2.160156 C 2.328125 -2.472656 2.398438 -2.757812 2.445312 -3.070312 C 2.496094 -3.308594 2.421875 -3.550781 2.542969 -3.789062 C 2.613281 -3.933594 2.636719 -3.910156 2.804688 -3.957031 L 3.214844 -4.101562 C 3.476562 -4.199219 3.742188 -4.292969 3.980469 -4.4375 C 4.34375 -4.652344 4.675781 -4.917969 4.988281 -5.179688 C 5.734375 -5.804688 6.523438 -6.546875 6.835938 -7.484375 C 7.003906 -8.011719 7.027344 -8.585938 6.691406 -9.042969 C 6.378906 -9.453125 5.851562 -9.667969 5.375 -9.761719 C 4.078125 -10.003906 3.09375 -9.257812 2.351562 -8.277344 C 1.4375 -7.148438 0.792969 -5.757812 0.480469 -4.34375 C 0.3125 -3.644531 0.214844 -2.949219 0.0976562 -2.230469 C -0.0234375 -1.511719 -0.0976562 -0.839844 0.289062 -0.167969 C 0.265625 -0.40625 0.214844 -0.625 0.214844 -0.839844 C 0.214844 -0.960938 0.265625 -1.078125 0.265625 -1.175781 C 0.265625 -1.222656 0.214844 -1.367188 0.214844 -1.4375 C 0.214844 -1.65625 0.265625 -1.824219 0.3125 -2.039062 C 0.335938 -2.253906 0.3125 -2.472656 0.335938 -2.6875 C 0.359375 -2.925781 0.457031 -3.117188 0.550781 -3.335938 C 0.625 -3.527344 0.648438 -3.695312 0.71875 -3.886719 C 0.792969 -4.054688 0.839844 -4.246094 0.910156 -4.4375 C 0.933594 -4.558594 1.054688 -4.703125 1.128906 -4.84375 C 1.054688 -4.628906 0.910156 -4.4375 0.863281 -4.246094 C 0.792969 -3.957031 0.839844 -3.644531 0.816406 -3.359375 C 0.769531 -3.046875 0.671875 -2.734375 0.625 -2.398438 C 0.574219 -2.085938 0.433594 -1.800781 0.382812 -1.488281 C 0.335938 -1.199219 0.238281 -0.984375 0.265625 -0.695312 C 0.265625 -0.527344 0.289062 -0.359375 0.3125 -0.214844 C 0.335938 -0.0234375 0.457031 0.0976562 0.574219 0.238281 C 0.984375 0.71875 1.535156 1.101562 2.160156 1.269531 C 2.589844 1.390625 2.972656 1.367188 3.382812 1.152344 C 3.957031 0.839844 4.460938 0.359375 4.894531 -0.0976562 C 5.300781 -0.550781 5.613281 -1.054688 5.972656 -1.535156 C 6.308594 -1.96875 6.714844 -2.375 7.050781 -2.804688 L 8.347656 -4.484375 L 9.089844 -5.46875 C 9.210938 -5.613281 9.285156 -5.734375 9.1875 -5.925781 Z M 3.238281 -5.660156 C 3.261719 -5.710938 3.261719 -5.734375 3.261719 -5.734375 C 3.621094 -6.5 3.886719 -7.316406 4.390625 -8.058594 L 4.820312 -8.636719 C 4.917969 -8.753906 5.085938 -8.972656 5.253906 -9.019531 C 5.613281 -9.089844 5.710938 -8.46875 5.683594 -8.226562 L 5.589844 -7.722656 C 5.566406 -7.582031 5.613281 -7.484375 5.589844 -7.363281 C 5.542969 -7.21875 5.421875 -7.148438 5.347656 -7.027344 L 4.941406 -6.5 C 4.390625 -5.851562 3.695312 -5.300781 2.925781 -4.894531 C 3.046875 -5.15625 3.117188 -5.421875 3.238281 -5.660156 Z M 3.238281 -5.660156 "/></g></g></g><g fill="#000000" fill-opacity="1"><g transform="translate(57.972759, 21.648092)"><g><path d="M 9.523438 -5.636719 C 9.453125 -5.972656 9.257812 -6.019531 9.019531 -5.925781 C 8.5625 -5.710938 8.109375 -5.230469 7.675781 -4.941406 C 6.691406 -4.316406 5.710938 -3.8125 4.652344 -3.285156 C 4.652344 -3.308594 4.628906 -3.359375 4.605469 -3.429688 C 4.628906 -3.308594 4.605469 -3.261719 4.582031 -3.238281 C 4.34375 -4.269531 4.101562 -5.300781 3.910156 -6.355469 C 4.007812 -5.902344 4.222656 -5.132812 4.390625 -4.484375 C 4.175781 -5.492188 3.910156 -6.742188 3.933594 -6.742188 C 3.886719 -6.714844 3.886719 -6.667969 3.886719 -6.621094 C 3.839844 -6.910156 3.765625 -7.269531 3.8125 -7.582031 C 3.839844 -7.941406 4.03125 -8.25 4.148438 -8.585938 C 4.125 -8.417969 4.078125 -8.203125 4.078125 -8.203125 C 4.222656 -8.179688 4.316406 -9.066406 4.316406 -9.164062 C 4.292969 -9.308594 3.980469 -9.761719 3.980469 -9.644531 C 3.335938 -10.242188 2.0625 -8.921875 1.871094 -8.347656 C 1.726562 -7.964844 1.726562 -7.554688 1.75 -7.148438 C 1.773438 -6.742188 1.894531 -6.378906 2.015625 -5.996094 C 2.085938 -5.710938 1.992188 -5.515625 2.015625 -5.207031 C 2.0625 -4.726562 2.230469 -4.246094 2.328125 -3.789062 C 2.421875 -3.429688 2.734375 -2.710938 2.664062 -2.375 C 2.613281 -2.039062 1.894531 -1.75 1.582031 -1.558594 C 1.175781 -1.296875 0.769531 -0.984375 0.359375 -0.671875 C -0.359375 -0.121094 -1.128906 0.574219 -1.414062 1.464844 C -1.464844 1.582031 -1.632812 2.109375 -1.464844 2.207031 C -1.4375 2.230469 -1.367188 1.824219 -1.34375 1.773438 C -1.65625 3.359375 -0.0976562 4.125 1.367188 4.148438 C 3.023438 4.199219 4.175781 3.238281 4.75 1.75 C 4.988281 1.101562 5.0625 0.433594 5.039062 -0.238281 C 5.039062 -0.695312 4.988281 -1.128906 4.917969 -1.558594 C 4.871094 -1.941406 4.820312 -1.917969 5.085938 -2.136719 C 5.277344 -2.277344 5.566406 -2.375 5.757812 -2.472656 C 6.523438 -2.878906 7.21875 -3.359375 7.914062 -3.863281 C 8.417969 -4.222656 9.621094 -4.84375 9.523438 -5.613281 Z M -0.167969 2.613281 C -0.792969 2.421875 -0.167969 1.4375 0.046875 1.128906 C 0.40625 0.648438 0.933594 0.289062 1.414062 -0.046875 L 2.136719 -0.527344 C 2.207031 -0.574219 2.664062 -0.933594 2.519531 -0.886719 L 2.804688 -1.054688 L 2.636719 -0.910156 C 2.6875 -0.933594 2.757812 -0.960938 2.804688 -1.007812 C 2.832031 -0.433594 2.832031 0.144531 2.664062 0.71875 C 2.636719 0.816406 2.183594 1.773438 1.992188 1.96875 L 2.109375 1.871094 C 1.894531 2.136719 1.65625 2.351562 1.367188 2.519531 C 1.367188 2.496094 1.582031 2.351562 1.558594 2.328125 L 0.886719 2.589844 C 0.550781 2.664062 0.167969 2.734375 -0.167969 2.613281 Z M 2.855469 3.308594 C 2.230469 3.574219 1.632812 3.695312 0.984375 3.71875 C 2.160156 3.644531 3.382812 3.070312 4.078125 2.085938 C 3.8125 2.613281 3.476562 3.023438 2.855469 3.308594 Z M 4.605469 -3.503906 C 4.582031 -3.671875 4.535156 -3.910156 4.460938 -4.175781 C 4.507812 -3.910156 4.558594 -3.644531 4.605469 -3.503906 Z M 4.917969 -1.007812 C 4.894531 -1.03125 4.894531 -1.078125 4.894531 -1.128906 C 4.894531 -1.078125 4.917969 -1.03125 4.917969 -1.007812 Z M 4.917969 -1.007812 "/></g></g></g><g fill="#000000" fill-opacity="1"><g transform="translate(65.744124, 21.648092)"><g><path d="M 9.1875 -5.925781 C 9.1875 -5.902344 9.1875 -5.902344 9.164062 -5.925781 L 9.164062 -5.949219 C 8.78125 -6.597656 8.277344 -5.710938 8.058594 -5.398438 C 7.652344 -4.84375 7.269531 -4.316406 6.835938 -3.8125 C 6.476562 -3.382812 6.09375 -2.949219 5.804688 -2.496094 C 5.804688 -2.445312 5.757812 -2.328125 5.757812 -2.328125 C 5.660156 -2.183594 5.515625 -2.0625 5.398438 -1.917969 C 5.179688 -1.703125 4.964844 -1.464844 4.726562 -1.246094 C 4.367188 -0.910156 2.351562 0.984375 2.085938 -0.238281 C 1.941406 -0.839844 2.136719 -1.582031 2.253906 -2.160156 C 2.328125 -2.472656 2.398438 -2.757812 2.445312 -3.070312 C 2.496094 -3.308594 2.421875 -3.550781 2.542969 -3.789062 C 2.613281 -3.933594 2.636719 -3.910156 2.804688 -3.957031 L 3.214844 -4.101562 C 3.476562 -4.199219 3.742188 -4.292969 3.980469 -4.4375 C 4.34375 -4.652344 4.675781 -4.917969 4.988281 -5.179688 C 5.734375 -5.804688 6.523438 -6.546875 6.835938 -7.484375 C 7.003906 -8.011719 7.027344 -8.585938 6.691406 -9.042969 C 6.378906 -9.453125 5.851562 -9.667969 5.375 -9.761719 C 4.078125 -10.003906 3.09375 -9.257812 2.351562 -8.277344 C 1.4375 -7.148438 0.792969 -5.757812 0.480469 -4.34375 C 0.3125 -3.644531 0.214844 -2.949219 0.0976562 -2.230469 C -0.0234375 -1.511719 -0.0976562 -0.839844 0.289062 -0.167969 C 0.265625 -0.40625 0.214844 -0.625 0.214844 -0.839844 C 0.214844 -0.960938 0.265625 -1.078125 0.265625 -1.175781 C 0.265625 -1.222656 0.214844 -1.367188 0.214844 -1.4375 C 0.214844 -1.65625 0.265625 -1.824219 0.3125 -2.039062 C 0.335938 -2.253906 0.3125 -2.472656 0.335938 -2.6875 C 0.359375 -2.925781 0.457031 -3.117188 0.550781 -3.335938 C 0.625 -3.527344 0.648438 -3.695312 0.71875 -3.886719 C 0.792969 -4.054688 0.839844 -4.246094 0.910156 -4.4375 C 0.933594 -4.558594 1.054688 -4.703125 1.128906 -4.84375 C 1.054688 -4.628906 0.910156 -4.4375 0.863281 -4.246094 C 0.792969 -3.957031 0.839844 -3.644531 0.816406 -3.359375 C 0.769531 -3.046875 0.671875 -2.734375 0.625 -2.398438 C 0.574219 -2.085938 0.433594 -1.800781 0.382812 -1.488281 C 0.335938 -1.199219 0.238281 -0.984375 0.265625 -0.695312 C 0.265625 -0.527344 0.289062 -0.359375 0.3125 -0.214844 C 0.335938 -0.0234375 0.457031 0.0976562 0.574219 0.238281 C 0.984375 0.71875 1.535156 1.101562 2.160156 1.269531 C 2.589844 1.390625 2.972656 1.367188 3.382812 1.152344 C 3.957031 0.839844 4.460938 0.359375 4.894531 -0.0976562 C 5.300781 -0.550781 5.613281 -1.054688 5.972656 -1.535156 C 6.308594 -1.96875 6.714844 -2.375 7.050781 -2.804688 L 8.347656 -4.484375 L 9.089844 -5.46875 C 9.210938 -5.613281 9.285156 -5.734375 9.1875 -5.925781 Z M 3.238281 -5.660156 C 3.261719 -5.710938 3.261719 -5.734375 3.261719 -5.734375 C 3.621094 -6.5 3.886719 -7.316406 4.390625 -8.058594 L 4.820312 -8.636719 C 4.917969 -8.753906 5.085938 -8.972656 5.253906 -9.019531 C 5.613281 -9.089844 5.710938 -8.46875 5.683594 -8.226562 L 5.589844 -7.722656 C 5.566406 -7.582031 5.613281 -7.484375 5.589844 -7.363281 C 5.542969 -7.21875 5.421875 -7.148438 5.347656 -7.027344 L 4.941406 -6.5 C 4.390625 -5.851562 3.695312 -5.300781 2.925781 -4.894531 C 3.046875 -5.15625 3.117188 -5.421875 3.238281 -5.660156 Z M 3.238281 -5.660156 "/></g></g></g><g fill="#000000" fill-opacity="1"><g transform="translate(73.203675, 21.648092)"><g><path d="M 9.929688 -5.710938 C 9.8125 -6.285156 9.476562 -5.902344 9.332031 -5.683594 C 8.996094 -5.277344 8.46875 -4.894531 8.058594 -4.507812 C 7.507812 -4.03125 6.957031 -3.527344 6.378906 -3.070312 C 6.09375 -2.832031 5.734375 -2.496094 5.375 -2.375 C 5.324219 -2.351562 5.15625 -2.328125 5.15625 -2.304688 L 5.132812 -2.328125 C 5.132812 -2.328125 5.109375 -2.710938 5.132812 -2.734375 C 5.15625 -3.046875 5.253906 -3.359375 5.347656 -3.644531 C 5.375 -3.695312 5.636719 -4.507812 5.589844 -4.507812 L 5.46875 -4.367188 C 5.613281 -4.652344 5.804688 -4.941406 5.972656 -5.253906 C 5.589844 -4.894531 5.324219 -4.484375 5.132812 -3.980469 C 5.039062 -3.742188 4.773438 -3.308594 4.726562 -2.949219 C 4.773438 -3.476562 5.132812 -4.175781 5.300781 -4.484375 C 5.542969 -4.988281 5.804688 -5.566406 6.117188 -6.046875 C 6.691406 -6.910156 7.941406 -7.699219 7.554688 -8.898438 C 7.21875 -10.027344 6.332031 -10.050781 5.636719 -9.402344 C 5.300781 -9.089844 2.445312 -5.445312 2.519531 -5.398438 C 2.519531 -5.398438 2.757812 -5.683594 3.070312 -6.09375 L 1.65625 -4.03125 C 1.632812 -4.03125 1.894531 -4.4375 1.871094 -4.460938 C 1.847656 -4.484375 1.679688 -4.316406 1.65625 -4.222656 C 1.703125 -4.726562 1.871094 -5.230469 1.917969 -5.734375 C 1.941406 -5.925781 1.917969 -6.070312 1.96875 -6.261719 C 2.0625 -6.574219 2.160156 -6.910156 2.304688 -7.171875 C 2.398438 -7.363281 2.589844 -7.53125 2.636719 -7.722656 C 2.734375 -8.035156 2.710938 -8.15625 2.925781 -8.417969 C 3.117188 -8.660156 3.40625 -8.898438 3.574219 -9.117188 C 3.980469 -9.714844 3.285156 -10.121094 2.902344 -10.195312 C 2.589844 -10.242188 2.277344 -10.265625 1.992188 -10.097656 C 1.679688 -9.90625 1.75 -9.738281 1.679688 -9.476562 C 1.605469 -9.140625 1.367188 -8.753906 1.246094 -8.445312 C 1.054688 -7.941406 0.886719 -7.4375 0.71875 -6.933594 C 0.527344 -6.429688 0.335938 -5.949219 0.191406 -5.445312 C 0.0703125 -5.039062 0.0976562 -4.652344 0.046875 -4.269531 C 0 -3.839844 -0.0703125 -3.550781 0.144531 -3.167969 C 0.382812 -2.757812 1.03125 -2.136719 1.464844 -2.664062 L 1.558594 -2.472656 C 1.96875 -3.359375 2.589844 -4.148438 3.09375 -5.011719 C 3.308594 -5.398438 3.695312 -5.660156 4.007812 -6.070312 C 4.4375 -6.644531 4.820312 -7.21875 5.300781 -7.773438 C 5.230469 -7.652344 4.917969 -7.101562 4.941406 -7.078125 C 4.988281 -7.101562 5.011719 -7.148438 5.0625 -7.195312 L 4.726562 -6.523438 C 4.703125 -6.546875 4.820312 -6.714844 4.773438 -6.714844 C 4.605469 -6.765625 4.101562 -5.421875 4.054688 -5.300781 C 3.886719 -4.773438 3.863281 -4.292969 3.8125 -3.742188 C 3.789062 -3.476562 3.742188 -3.214844 3.742188 -2.949219 C 3.742188 -2.6875 3.765625 -2.421875 3.886719 -2.160156 C 3.957031 -2.015625 4.054688 -1.824219 4.175781 -1.703125 C 4.199219 -1.703125 4.460938 -1.464844 4.34375 -1.65625 L 4.484375 -1.511719 L 4.414062 -1.558594 C 4.390625 -1.4375 5.277344 -0.960938 5.421875 -0.910156 C 6.09375 -0.695312 6.8125 -1.464844 7.246094 -1.917969 C 7.820312 -2.542969 8.300781 -3.261719 8.828125 -3.933594 C 9.117188 -4.316406 10.027344 -5.132812 9.929688 -5.710938 Z M 9.929688 -5.710938 "/></g></g></g><g fill="#000000" fill-opacity="1"><g transform="translate(81.382797, 21.648092)"><g><path d="M 9.738281 -12.472656 C 9.714844 -12.808594 9.355469 -12.546875 9.164062 -12.546875 C 8.203125 -12.496094 7.246094 -12.496094 6.308594 -12.449219 C 6.308594 -12.472656 6.355469 -12.570312 6.429688 -12.714844 C 6.332031 -12.546875 6.261719 -12.449219 6.1875 -12.449219 C 6.910156 -13.914062 7.675781 -15.375 8.585938 -16.71875 C 8.5625 -16.671875 8.203125 -16.070312 8.226562 -16.070312 C 8.300781 -16.046875 9.1875 -17.269531 9.210938 -17.4375 C 9.210938 -17.535156 8.996094 -17.296875 8.996094 -17.320312 C 9.140625 -17.464844 9.378906 -17.582031 9.453125 -17.773438 C 9.621094 -18.253906 9.117188 -18.46875 8.753906 -18.542969 C 8.011719 -18.6875 7.171875 -18.589844 6.691406 -17.96875 C 6.238281 -17.414062 5.902344 -16.765625 5.613281 -16.121094 C 5.46875 -15.832031 5.277344 -15.761719 5.085938 -15.496094 C 4.796875 -15.089844 4.605469 -14.609375 4.390625 -14.152344 C 4.199219 -13.746094 4.007812 -13.3125 3.839844 -12.882812 C 3.742188 -12.664062 3.742188 -12.496094 3.527344 -12.425781 C 3.308594 -12.328125 2.902344 -12.402344 2.664062 -12.378906 C 1.726562 -12.257812 0.816406 -12.304688 -0.121094 -12.210938 C -0.601562 -12.1875 -1.078125 -12.1875 -1.535156 -12.019531 C -1.632812 -11.992188 -2.160156 -11.875 -2.207031 -11.800781 C -2.351562 -11.539062 -1.773438 -11.515625 -1.65625 -11.488281 C -0.742188 -11.371094 0.40625 -11.273438 1.320312 -11.441406 C 1.941406 -11.5625 2.589844 -11.515625 3.261719 -11.5625 C 2.925781 -10.84375 2.664062 -10.074219 2.398438 -9.308594 L 2.109375 -8.46875 C 2.015625 -8.203125 1.703125 -7.699219 1.703125 -7.414062 C 1.703125 -7.363281 1.773438 -7.484375 1.824219 -7.605469 C 1.703125 -7.246094 1.558594 -6.882812 1.464844 -6.523438 C 1.464844 -6.546875 1.535156 -6.835938 1.511719 -6.835938 C 1.390625 -6.835938 0.910156 -5.375 0.863281 -5.253906 C 0.625 -4.535156 0.359375 -3.8125 0.238281 -3.046875 C 0.0976562 -2.277344 -0.0976562 -1.535156 -0.265625 -0.792969 C -0.359375 -0.40625 -0.457031 -0.046875 -0.503906 0.335938 C -0.550781 0.527344 -0.601562 0.742188 -0.601562 0.933594 C -0.601562 0.984375 -0.601562 1.296875 -0.550781 1.199219 L -0.601562 1.679688 L -0.601562 1.320312 C -0.742188 1.488281 -0.601562 2.253906 -0.574219 2.398438 C -0.480469 2.878906 -0.238281 3.308594 0.191406 3.597656 C 0.574219 3.886719 1.175781 4.148438 1.632812 3.933594 C 2.230469 3.644531 2.734375 2.972656 3.117188 2.496094 C 3.957031 1.511719 4.726562 0.480469 5.492188 -0.550781 C 6.1875 -1.511719 6.910156 -2.445312 7.507812 -3.453125 C 7.84375 -4.03125 8.492188 -4.558594 8.707031 -5.207031 C 8.828125 -5.515625 8.753906 -5.902344 8.371094 -5.828125 C 8.058594 -5.757812 7.628906 -4.917969 7.4375 -4.675781 C 6.574219 -3.597656 5.757812 -2.496094 4.894531 -1.414062 L 3.503906 0.289062 C 3.285156 0.527344 3.070312 0.792969 2.832031 1.03125 C 2.734375 1.152344 2.136719 1.632812 2.160156 1.773438 C 2.160156 1.824219 2.421875 1.605469 2.519531 1.535156 C 2.398438 1.679688 2.253906 1.800781 2.136719 1.917969 C 2.160156 1.894531 1.65625 2.183594 1.582031 2.136719 C 1.128906 1.941406 1.535156 0.550781 1.605469 0.214844 C 2.039062 -1.726562 2.6875 -3.695312 3.335938 -5.566406 C 3.71875 -6.597656 4.101562 -7.582031 4.535156 -8.585938 C 4.75 -9.089844 4.964844 -9.621094 5.207031 -10.121094 L 5.542969 -11.035156 L 5.277344 -10.507812 C 5.445312 -10.9375 5.683594 -11.585938 5.828125 -11.609375 L 5.757812 -11.464844 C 5.804688 -11.539062 5.851562 -11.585938 5.902344 -11.609375 C 6.164062 -11.777344 6.835938 -11.609375 7.148438 -11.609375 C 7.363281 -11.609375 7.628906 -11.585938 7.84375 -11.65625 C 7.988281 -11.707031 7.941406 -11.777344 8.109375 -11.824219 C 8.394531 -11.875 8.753906 -11.683594 9.066406 -11.777344 C 9.355469 -11.851562 9.761719 -12.113281 9.738281 -12.449219 Z M 5.179688 -11.082031 C 4.101562 -8.804688 3.285156 -6.355469 2.421875 -3.980469 C 2.015625 -2.902344 1.632812 -1.773438 1.367188 -0.648438 L 1.246094 -0.191406 C 1.414062 -1.054688 1.605469 -1.894531 1.847656 -2.734375 C 2.375 -4.582031 3.046875 -6.40625 3.839844 -8.15625 C 5.179688 -11.15625 6.378906 -14.367188 8.300781 -17.078125 C 7.003906 -15.230469 6.140625 -13.121094 5.179688 -11.082031 Z M 6.765625 -13.457031 L 7.339844 -14.5625 C 7.21875 -14.535156 7.003906 -14.007812 6.765625 -13.457031 Z M 4.292969 -8.226562 C 4.125 -7.773438 3.933594 -7.339844 3.742188 -6.910156 C 3.933594 -7.363281 4.101562 -7.84375 4.316406 -8.324219 C 4.292969 -8.277344 4.292969 -8.25 4.292969 -8.226562 Z M 6.453125 -12.761719 L 6.691406 -13.289062 C 6.621094 -13.097656 6.523438 -12.90625 6.453125 -12.761719 Z M 1.222656 2.351562 C 1.199219 2.351562 1.175781 2.328125 1.152344 2.304688 Z M 1.222656 2.351562 "/></g></g></g><g fill="#000000" fill-opacity="1"><g transform="translate(88.746405, 21.648092)"><g><path d="M 12.210938 -5.78125 C 12.1875 -6.308594 11.753906 -5.851562 11.609375 -5.660156 C 11.296875 -5.207031 11.011719 -4.726562 10.722656 -4.269531 C 10.074219 -3.285156 9.425781 -2.304688 8.683594 -1.367188 C 6.210938 1.679688 7.941406 -3.742188 7.75 -3.695312 C 7.652344 -3.671875 7.582031 -3.308594 7.554688 -3.238281 C 7.75 -4.101562 8.109375 -5.132812 8.5625 -5.972656 C 8.828125 -6.5 9.140625 -6.933594 8.660156 -7.507812 C 7.773438 -8.585938 6.742188 -7.605469 6.164062 -6.859375 C 5.925781 -7.773438 5.445312 -9.117188 4.269531 -9.117188 C 3.742188 -9.117188 3.429688 -8.851562 3.070312 -8.539062 C 2.855469 -8.394531 2.6875 -8.371094 2.496094 -8.203125 C 2.183594 -7.988281 1.96875 -7.652344 1.75 -7.363281 C 0.933594 -6.164062 0.359375 -4.652344 0.0976562 -3.261719 C -0.0234375 -2.589844 -0.0703125 -1.847656 0.121094 -1.175781 C 0.238281 -0.792969 0.671875 0.0703125 1.222656 0 C 1.246094 0 1.199219 -0.0234375 1.128906 -0.0703125 C 1.464844 0.0234375 1.847656 -0.0234375 2.136719 -0.214844 C 2.160156 -0.167969 1.871094 -0.046875 1.871094 -0.046875 C 2.136719 0.359375 4.101562 -2.015625 4.246094 -2.230469 C 4.558594 -2.664062 4.773438 -3.117188 5.0625 -3.574219 C 5.277344 -3.910156 5.613281 -4.34375 5.851562 -4.703125 C 5.828125 -4.535156 5.828125 -4.316406 5.828125 -4.316406 C 5.398438 -2.949219 4.988281 -1.464844 5.566406 -0.046875 C 5.828125 0.671875 6.476562 1.34375 7.292969 1.199219 C 8.011719 1.078125 8.613281 0.382812 9.042969 -0.167969 C 9.570312 -0.792969 10.027344 -1.488281 10.484375 -2.207031 C 10.867188 -2.855469 11.226562 -3.503906 11.539062 -4.222656 C 11.730469 -4.675781 12.257812 -5.230469 12.210938 -5.78125 Z M 5.324219 -5.613281 C 5.207031 -5.445312 5.085938 -5.277344 4.988281 -5.109375 L 4.367188 -4.222656 C 3.957031 -3.621094 3.527344 -3.046875 3.070312 -2.496094 C 2.949219 -2.328125 2.375 -1.582031 2.136719 -1.65625 C 1.773438 -1.773438 2.160156 -3.023438 2.207031 -3.214844 C 2.277344 -3.550781 3.550781 -7.246094 3.886719 -7.316406 C 3.453125 -7.339844 2.0625 -3 1.992188 -2.636719 C 2.183594 -3.8125 2.613281 -4.964844 3.09375 -6.046875 C 3.359375 -6.597656 3.957031 -8.058594 4.75 -8.058594 C 5.179688 -8.058594 5.277344 -7.171875 5.347656 -6.882812 C 5.324219 -6.933594 5.109375 -7.628906 5.085938 -7.605469 C 4.964844 -7.507812 5.445312 -6.1875 5.445312 -5.996094 C 5.445312 -5.804688 5.445312 -5.804688 5.324219 -5.613281 Z M 5.878906 -4.4375 C 5.878906 -4.4375 5.949219 -4.773438 5.972656 -4.84375 L 6.09375 -5.011719 Z M 5.515625 -5.925781 L 5.515625 -6.164062 C 5.589844 -6.070312 5.589844 -5.996094 5.515625 -5.925781 Z M 5.515625 -5.925781 "/></g></g></g></svg>